# xmcd
#
# Track frame offsets:
#	150
#	8298
#	20686
#	31893
#	42373
#	54354
#	66144
#	78891
#	90084
#	101128
#	110134
#	122773
#	133408
#	145509
#	156533
#	165357
#	176703
#	189080
#	200433
#	213639
#	223905
#	232998
#	243879
#	254176
#	266282
#	277637
#	286592
#	299943
#	312217
#	322067
#	332407
#	340715
#
# Disc length: 4673 seconds
# Revision: 0
# Processed by: cddbd v1.5.2PL0 Copyright (c) Steve Scherf et al.
# Submitted via: dBpowerAMP V12.0
#
DISCID=cc123f20
DTITLE=Tiny Bradshaw and His Orchestra - Heavy Juice 1950 to 1955
DYEAR=2006
DGENRE=Blues
TTITLE0=Heavy Juice - Bradshaw, Bass and Prysock
TTITLE1=The Train Kept a Rollin' - Bradshaw and Mann
TTITLE2=Later - Bradshaw and Glover)
TTITLE3=Hold on Josie - Bradshaw
TTITLE4=Rippin' and Runnin' - Kennedy and Bradshaw
TTITLE5=Cat Nap - Big Al Sears
TTITLE6=Walkin' The Chalk Line - Bernard and Norman
TTITLE7=Choice - Bradshaw and Sam Jones
TTITLE8=Spider Web - Ray Barrow
TTITLE9=Free for All - Bradshaw and Prysock
TTITLE10=Gravy Train - Henery Bernard
TTITLE11=Overflow - Henry Glover
TTITLE12=Well Oh Well - Mann, Bradshaw and Bernard
TTITLE13=Come On - Bradshaw and Glover
TTITLE14=I'm a Hi Ballin' Daddy - Bradshaw, Nathan, and Jones
TTITLE15=Pompton Turnpike - Will Osborne and Dick Rogers
TTITLE16=I'm Going to Have Myself a Ball - Bradshaw, Nix and Glover
TTITLE17=Soft - Tiny Bradshaw
TTITLE18=Ping Pong - Bradshaw, Glove and Austin
TTITLE19=Mailman's Sack - Bradshaw, Glover and Mann
TTITLE20=South of the Orient - Bradshaw and Glover
TTITLE21=Lay It on the Line - Bradshaw, Glover and Mann
TTITLE22=Stomping Room Only - Howard Marks
TTITLE23=Breaking Up The House - Mann and Glover
TTITLE24=Cat Fruit - Bradshaw
TTITLE25=Off and On (Bradshaw)
TTITLE26=Brad's Blues - Robinson and Bradshaw
TTITLE27=Newspaper Boy Blues - Bradshaw and Kennedy
TTITLE28=Stack of Dollars - Bradshaw, Jones and Robinson
TTITLE29=Light - Bradshaw
TTITLE30=Knockin' Blues - Ann Jones
TTITLE31=Powder Puff - Bradshaw and Glover
EXTD=
EXTT0=
EXTT1=
EXTT2=
EXTT3=
EXTT4=
EXTT5=
EXTT6=
EXTT7=
EXTT8=
EXTT9=
EXTT10=
EXTT11=
EXTT12=
EXTT13=
EXTT14=
EXTT15=
EXTT16=
EXTT17=
EXTT18=
EXTT19=
EXTT20=
EXTT21=
EXTT22=
EXTT23=
EXTT24=
EXTT25=
EXTT26=
EXTT27=
EXTT28=
EXTT29=
EXTT30=
EXTT31=
PLAYORDER=
